<svg version="1.1" id="Layer_1" xmlns="http://www.w3.org/2000/svg" xmlns:xlink="http://www.w3.org/1999/xlink" x="0px" y="0px"
	 width="100%" viewBox="0 0 675 682" enable-background="new 0 0 675 682" xml:space="preserve">
<path fill="#FFFFFF" opacity="1.000000" stroke="none" 
	d="
M390.000000,683.000000 
	C260.000000,683.000000 130.500000,683.000000 1.000000,683.000000 
	C1.000000,455.666656 1.000000,228.333328 1.000000,1.000000 
	C226.000000,1.000000 451.000000,1.000000 676.000000,1.000000 
	C676.000000,228.333328 676.000000,455.666656 676.000000,683.000000 
	C580.833313,683.000000 485.666656,683.000000 390.000000,683.000000 
M335.364227,626.875610 
	C338.191254,629.128601 337.871948,634.177246 343.527435,634.131836 
	C376.856171,633.863892 410.188446,633.941101 443.518646,634.095032 
	C446.692474,634.109680 447.993134,632.704651 448.943726,630.256226 
	C453.711365,617.976379 458.355011,605.647217 463.237091,593.413147 
	C469.553528,577.584534 476.075867,561.838135 482.468231,546.039734 
	C486.996338,534.848755 491.448700,523.627197 495.947723,512.424438 
	C504.303162,491.619049 512.687683,470.825317 521.021423,450.011200 
	C525.737122,438.233185 530.326599,426.404572 535.060364,414.633850 
	C542.557983,395.990845 550.116211,377.372162 557.672607,358.752869 
	C564.424194,342.116577 571.281616,325.522858 577.958008,308.856537 
	C585.376709,290.337219 592.619873,271.747589 599.983093,253.205887 
	C606.735840,236.201462 613.500854,219.201584 620.344910,202.233765 
	C626.839722,186.131973 633.464844,170.082794 639.990967,153.993530 
	C642.873352,146.887314 645.652832,139.739334 648.495605,132.568649 
	C647.423157,132.228561 647.108154,132.041306 646.793091,132.041153 
	C600.796570,132.018723 554.799988,131.982086 508.803955,132.128418 
	C507.358124,132.133011 505.175598,133.716888 504.592285,135.095749 
	C499.576721,146.951569 494.857758,158.932739 490.036163,170.870804 
	C483.059967,188.143585 475.950104,205.363602 469.120422,222.694061 
	C460.870392,243.628769 452.970245,264.701477 444.697845,285.627167 
	C438.373138,301.625977 431.612885,317.452148 425.213348,333.421997 
	C417.369507,352.996124 409.742096,372.656891 401.930237,392.243958 
	C399.418152,398.542603 396.618317,404.726471 393.950134,410.962830 
	C392.609528,407.699097 391.998932,404.685028 392.051483,401.682587 
	C392.381409,382.838898 391.682434,364.074707 389.112701,345.368988 
	C388.428009,340.384918 388.500854,335.321472 389.713135,330.112427 
	C390.700958,325.867737 389.939758,320.815857 388.631653,316.525085 
	C386.315674,308.928192 382.672729,301.743408 380.192291,294.186829 
	C378.038086,287.624115 376.888397,280.739136 375.004547,274.078674 
	C370.756927,259.061127 366.788422,243.940552 361.829529,229.155975 
	C357.900452,217.441650 353.187042,205.918655 347.898560,194.747833 
	C338.613495,175.135071 329.221893,155.524506 318.716797,136.554367 
	C311.607178,123.715851 302.900604,111.692780 294.204834,99.820221 
	C284.778046,86.949585 275.288391,73.975998 264.451782,62.325710 
	C251.727753,48.646286 237.538635,36.327785 223.928421,23.478905 
	C223.072327,22.670677 221.726410,22.381273 220.608368,21.850502 
	C235.069397,39.876282 244.218491,60.393986 252.897064,81.117401 
	C256.620392,90.008247 259.463837,99.265831 262.763275,108.336349 
	C268.239105,123.390152 271.596710,138.885376 271.922668,154.914688 
	C272.056458,161.493866 271.596649,168.116806 270.940948,174.673248 
	C269.836029,185.722519 266.332214,196.057785 260.109894,205.294952 
	C257.870239,208.619843 257.486328,210.807449 260.470673,214.208694 
	C268.255585,223.081238 275.444031,232.477142 282.870361,241.664337 
	C282.258911,242.393188 281.647461,243.122040 281.036011,243.850906 
	C279.761963,243.138657 278.362488,242.584473 277.233826,241.688980 
	C268.800903,234.998276 260.339020,228.338791 252.079788,221.437912 
	C249.839859,219.566360 248.601517,219.886429 246.705750,221.732956 
	C233.968750,234.139206 218.180054,241.099289 201.658218,246.721725 
	C186.452881,251.896118 170.836166,253.911301 154.811157,253.008804 
	C136.379959,251.970795 117.946564,250.969147 99.510880,250.014236 
	C91.425194,249.595413 83.321739,249.480194 75.244438,248.951096 
	C68.549187,248.512543 61.890423,247.287079 55.197163,247.112259 
	C48.481411,246.936859 41.742970,247.630112 35.014473,247.942673 
	C34.974922,248.417343 34.935368,248.892014 34.895817,249.366684 
	C36.143833,249.908813 37.345749,250.635895 38.647984,250.960480 
	C43.814323,252.248199 49.072269,253.198624 54.187462,254.655975 
	C74.164360,260.347504 94.176567,265.935486 114.024460,272.052490 
	C128.007935,276.362152 141.897858,281.072235 155.553177,286.322327 
	C169.208771,291.572540 182.573837,297.596405 195.962280,303.516296 
	C203.281708,306.752686 210.943283,309.649658 213.107620,318.979126 
	C214.152054,323.481140 216.284805,327.739868 218.019623,332.070770 
	C224.665222,348.661316 231.357178,365.233276 238.016693,381.818237 
	C244.366531,397.631836 250.666138,413.465729 257.045532,429.267365 
	C263.658386,445.647339 270.410614,461.971283 276.970123,478.372437 
	C282.229309,491.522339 287.212128,504.782715 292.465149,517.935181 
	C296.874878,528.976013 301.665588,539.866272 305.985260,550.941162 
	C311.935272,566.196106 317.616699,581.555908 323.374023,596.885498 
	C324.498871,599.880493 325.296875,603.003052 326.503235,605.961670 
	C329.262970,612.730225 332.182007,619.433777 335.364227,626.875610 
M105.004768,138.617630 
	C104.923546,139.602646 105.002724,140.633301 104.737404,141.565948 
	C99.429840,160.223541 94.082558,178.869843 88.448586,198.547714 
	C90.542442,197.785172 91.602036,197.548141 92.513565,197.043594 
	C99.294548,193.290314 105.821556,188.976822 112.876930,185.852219 
	C118.681862,183.281403 123.519341,174.605286 132.069061,182.818573 
	C132.069061,177.888977 132.069061,174.021179 132.069061,170.153397 
	C132.480881,170.036911 132.892700,169.920441 133.304520,169.803970 
	C133.868866,170.918488 134.822983,171.994080 134.938766,173.153397 
	C136.541153,189.198334 143.224152,202.463577 156.489807,211.910751 
	C170.730942,222.052612 186.517197,224.793442 203.338013,220.140259 
	C214.732071,216.988312 224.100769,210.752686 231.474472,201.178726 
	C242.523682,186.832565 245.483887,170.962799 241.234451,153.782883 
	C236.180115,133.348877 222.328918,120.978325 202.575912,115.499863 
	C195.999268,113.675842 190.514908,110.969261 185.905945,106.287628 
	C184.785736,105.149788 183.838333,102.923622 184.137024,101.470306 
	C185.268814,95.963425 186.934280,90.565491 188.420212,85.132294 
	C190.312927,78.211807 192.225143,71.296646 194.388229,63.437107 
	C192.092804,64.256989 190.679626,64.535767 189.498505,65.216942 
	C165.417068,79.105347 141.398285,93.102997 117.257164,106.886513 
	C114.174911,108.646339 112.759140,110.793915 111.905922,114.132759 
	C109.875343,122.078888 107.364319,129.902252 105.004768,138.617630 
z"/>
<path fill="#FF0000" opacity="1.000000" stroke="none" 
	d="
M335.200287,626.519653 
	C332.182007,619.433777 329.262970,612.730225 326.503235,605.961670 
	C325.296875,603.003052 324.498871,599.880493 323.374023,596.885498 
	C317.616699,581.555908 311.935272,566.196106 305.985260,550.941162 
	C301.665588,539.866272 296.874878,528.976013 292.465149,517.935181 
	C287.212128,504.782715 282.229309,491.522339 276.970123,478.372437 
	C270.410614,461.971283 263.658386,445.647339 257.045532,429.267365 
	C250.666138,413.465729 244.366531,397.631836 238.016693,381.818237 
	C231.357178,365.233276 224.665222,348.661316 218.019623,332.070770 
	C216.284805,327.739868 214.152054,323.481140 213.107620,318.979126 
	C210.943283,309.649658 203.281708,306.752686 195.962280,303.516296 
	C182.573837,297.596405 169.208771,291.572540 155.553177,286.322327 
	C141.897858,281.072235 128.007935,276.362152 114.024460,272.052490 
	C94.176567,265.935486 74.164360,260.347504 54.187462,254.655975 
	C49.072269,253.198624 43.814323,252.248199 38.647984,250.960480 
	C37.345749,250.635895 36.143833,249.908813 34.895817,249.366684 
	C34.935368,248.892014 34.974922,248.417343 35.014473,247.942673 
	C41.742970,247.630112 48.481411,246.936859 55.197163,247.112259 
	C61.890423,247.287079 68.549187,248.512543 75.244438,248.951096 
	C83.321739,249.480194 91.425194,249.595413 99.510880,250.014236 
	C117.946564,250.969147 136.379959,251.970795 154.811157,253.008804 
	C170.836166,253.911301 186.452881,251.896118 201.658218,246.721725 
	C218.180054,241.099289 233.968750,234.139206 246.705750,221.732956 
	C248.601517,219.886429 249.839859,219.566360 252.079788,221.437912 
	C260.339020,228.338791 268.800903,234.998276 277.233826,241.688980 
	C278.362488,242.584473 279.761963,243.138657 281.036011,243.850906 
	C281.647461,243.122040 282.258911,242.393188 282.870361,241.664337 
	C275.444031,232.477142 268.255585,223.081238 260.470673,214.208694 
	C257.486328,210.807449 257.870239,208.619843 260.109894,205.294952 
	C266.332214,196.057785 269.836029,185.722519 270.940948,174.673248 
	C271.596649,168.116806 272.056458,161.493866 271.922668,154.914688 
	C271.596710,138.885376 268.239105,123.390152 262.763275,108.336349 
	C259.463837,99.265831 256.620392,90.008247 252.897064,81.117401 
	C244.218491,60.393986 235.069397,39.876282 220.608368,21.850502 
	C221.726410,22.381273 223.072327,22.670677 223.928421,23.478905 
	C237.538635,36.327785 251.727753,48.646286 264.451782,62.325710 
	C275.288391,73.975998 284.778046,86.949585 294.204834,99.820221 
	C302.900604,111.692780 311.607178,123.715851 318.716797,136.554367 
	C329.221893,155.524506 338.613495,175.135071 347.898560,194.747833 
	C353.187042,205.918655 357.900452,217.441650 361.829529,229.155975 
	C366.788422,243.940552 370.756927,259.061127 375.004547,274.078674 
	C376.888397,280.739136 378.038086,287.624115 380.192291,294.186829 
	C382.672729,301.743408 386.315674,308.928192 388.631653,316.525085 
	C389.939758,320.815857 390.700958,325.867737 389.713135,330.112427 
	C388.500854,335.321472 388.428009,340.384918 389.112701,345.368988 
	C391.682434,364.074707 392.381409,382.838898 392.051483,401.682587 
	C391.998932,404.685028 392.609528,407.699097 393.950134,410.962830 
	C396.618317,404.726471 399.418152,398.542603 401.930237,392.243958 
	C409.742096,372.656891 417.369507,352.996124 425.213348,333.421997 
	C431.612885,317.452148 438.373138,301.625977 444.697845,285.627167 
	C452.970245,264.701477 460.870392,243.628769 469.120422,222.694061 
	C475.950104,205.363602 483.059967,188.143585 490.036163,170.870804 
	C494.857758,158.932739 499.576721,146.951569 504.592285,135.095749 
	C505.175598,133.716888 507.358124,132.133011 508.803955,132.128418 
	C554.799988,131.982086 600.796570,132.018723 646.793091,132.041153 
	C647.108154,132.041306 647.423157,132.228561 648.495605,132.568649 
	C645.652832,139.739334 642.873352,146.887314 639.990967,153.993530 
	C633.464844,170.082794 626.839722,186.131973 620.344910,202.233765 
	C613.500854,219.201584 606.735840,236.201462 599.983093,253.205887 
	C592.619873,271.747589 585.376709,290.337219 577.958008,308.856537 
	C571.281616,325.522858 564.424194,342.116577 557.672607,358.752869 
	C550.116211,377.372162 542.557983,395.990845 535.060364,414.633850 
	C530.326599,426.404572 525.737122,438.233185 521.021423,450.011200 
	C512.687683,470.825317 504.303162,491.619049 495.947723,512.424438 
	C491.448700,523.627197 486.996338,534.848755 482.468231,546.039734 
	C476.075867,561.838135 469.553528,577.584534 463.237091,593.413147 
	C458.355011,605.647217 453.711365,617.976379 448.943726,630.256226 
	C447.993134,632.704651 446.692474,634.109680 443.518646,634.095032 
	C410.188446,633.941101 376.856171,633.863892 343.527435,634.131836 
	C337.871948,634.177246 338.191254,629.128601 335.200287,626.519653 
z"/>
<path fill="#FF0000" opacity="1.000000" stroke="none" 
	d="
M105.026077,138.196411 
	C107.364319,129.902252 109.875343,122.078888 111.905922,114.132759 
	C112.759140,110.793915 114.174911,108.646339 117.257164,106.886513 
	C141.398285,93.102997 165.417068,79.105347 189.498505,65.216942 
	C190.679626,64.535767 192.092804,64.256989 194.388229,63.437107 
	C192.225143,71.296646 190.312927,78.211807 188.420212,85.132294 
	C186.934280,90.565491 185.268814,95.963425 184.137024,101.470306 
	C183.838333,102.923622 184.785736,105.149788 185.905945,106.287628 
	C190.514908,110.969261 195.999268,113.675842 202.575912,115.499863 
	C222.328918,120.978325 236.180115,133.348877 241.234451,153.782883 
	C245.483887,170.962799 242.523682,186.832565 231.474472,201.178726 
	C224.100769,210.752686 214.732071,216.988312 203.338013,220.140259 
	C186.517197,224.793442 170.730942,222.052612 156.489807,211.910751 
	C143.224152,202.463577 136.541153,189.198334 134.938766,173.153397 
	C134.822983,171.994080 133.868866,170.918488 133.304520,169.803970 
	C132.892700,169.920441 132.480881,170.036911 132.069061,170.153397 
	C132.069061,174.021179 132.069061,177.888977 132.069061,182.818573 
	C123.519341,174.605286 118.681862,183.281403 112.876930,185.852219 
	C105.821556,188.976822 99.294548,193.290314 92.513565,197.043594 
	C91.602036,197.548141 90.542442,197.785172 88.448586,198.547714 
	C94.082558,178.869843 99.429840,160.223541 104.737404,141.565948 
	C105.002724,140.633301 104.923546,139.602646 105.026077,138.196411 
z"/>
</svg>